#!OML:ASF H:\Dans Jumps\Project 1\Capture day 1\Session 1\subject.ASF
:FULLY-SPECIFIED
:DEGREES
641
root 0.368284 17.7823 2.91839 6.85385 -1.52426 -1.23267
lowerback -2.79745 -0.033164 -0.258012
upperback 2.11924 -0.081723 1.40929
thorax 3.75267 -0.0674049 1.59169
lowerneck -13.4895 0.161725 -1.98768
upperneck 24.8118 0.570487 0.545247
head 10.1179 0.138259 0.600981
rclavicle 8.94531e-016 1.19271e-015
rhumerus -25.2809 -15.5274 -81.673
rradius 22.8562
rwrist 35.1763
rhand -21.3743 -28.4512
rfingers 7.12502
rthumb 5.01298 -58.3719
lclavicle 8.94531e-016 1.19271e-015
lhumerus -20.6986 2.18327 89.1492
lradius 14.406
lwrist -0.895179
lhand -25.166 -6.49838
lfingers 7.12502
lthumb 1.35126 23.4771
rfemur -13.8315 -1.9441 19.499
rtibia 20.2627
rfoot -11.6428 0.0330021
rtoes 17.8424
lfemur -9.82977 5.90328 -18.113
ltibia 15.369
lfoot -8.80526 6.39526
ltoes 2.27597
642
root 0.368242 17.7822 2.91791 6.84713 -1.5294 -1.23092
lowerback -2.80256 -0.03151 -0.257975
upperback 2.11629 -0.0793847 1.40568
thorax 3.75243 -0.0661743 1.58808
lowerneck -13.4835 0.158764 -1.99395
upperneck 24.7965 0.567437 0.546132
head 10.1113 0.136489 0.601875
rclavicle 3.08116e-015 -1.23246e-014
rhumerus -25.284 -15.536 -81.6692
rradius 22.8482
rwrist 35.1849
rhand -21.3788 -28.4411
rfingers 7.12502
rthumb 5.00857 -58.3619
lclavicle 3.08116e-015 -1.23246e-014
lhumerus -20.707 2.19632 89.1394
lradius 14.4052
lwrist -0.91368
lhand -25.1505 -6.47904
lfingers 7.12502
lthumb 1.36622 23.4963
rfemur -13.8273 -1.94837 19.4975
rtibia 20.2638
rfoot -11.64 0.0398721
rtoes 17.836
lfemur -9.82147 5.90706 -18.1144
ltibia 15.3672
lfoot -8.80299 6.39575
ltoes 2.27204
643
root 0.368516 17.7822 2.91745 6.84267 -1.53198 -1.22482
lowerback -2.80757 -0.029704 -0.256818
upperback 2.11309 -0.0768035 1.39958
thorax 3.75186 -0.064755 1.58129
lowerneck -13.4907 0.157028 -2.00836
upperneck 24.7928 0.5663 0.555437
head 10.1113 0.135731 0.607463
rclavicle -2.33572e-015 2.38542e-015
rhumerus -25.2846 -15.5414 -81.667
rradius 22.8412
rwrist 35.1869
rhand -21.3815 -28.4436
rfingers 7.12502
rthumb 5.00595 -58.3644
lclavicle -2.33572e-015 2.38542e-015
lhumerus -20.7146 2.18567 89.1352
lradius 14.4042
lwrist -0.908278
lhand -25.1559 -6.48396
lfingers 7.12502
lthumb 1.361 23.4914
rfemur -13.8249 -1.96157 19.4905
rtibia 20.2635
rfoot -11.637 0.0526159
rtoes 17.8332
lfemur -9.81617 5.90868 -18.1222
ltibia 15.3658
lfoot -8.80132 6.39586
ltoes 2.26414
644
root 0.368734 17.7823 2.91698 6.83837 -1.53555 -1.22394
lowerback -2.81212 -0.0270381 -0.25071
upperback 2.10995 -0.0733302 1.39449
thorax 3.75105 -0.0627754 1.57281
lowerneck -13.4994 0.155406 -2.02042
upperneck 24.791 0.565465 0.562194
head 10.1123 0.135023 0.611806
rclavicle 1.39149e-015 1.66979e-014
rhumerus -25.2866 -15.5411 -81.6673
rradius 22.8385
rwrist 35.1848
rhand -21.3818 -28.4506
rfingers 7.12502
rthumb 5.00572 -58.3715
lclavicle 1.39149e-015 1.66979e-014
lhumerus -20.7212 2.17685 89.1284
lradius 14.4028
lwrist -0.904066
lhand -25.1622 -6.49371
lfingers 7.12502
lthumb 1.35489 23.4817
rfemur -13.822 -1.96876 19.489
rtibia 20.261
rfoot -11.6326 0.0618359
rtoes 17.8308
lfemur -9.812 5.90679 -18.1238
ltibia 15.3658
lfoot -8.79823 6.40123
ltoes 2.25496
645
root 0.368937 17.7823 2.91642 6.83467 -1.53978 -1.22433
lowerback -2.8138 -0.0247195 -0.244947
upperback 2.10478 -0.0703159 1.39075
thorax 3.74654 -0.0610269 1.56589
lowerneck -13.5097 0.15564 -2.03129
upperneck 24.7927 0.567844 0.565766
head 10.1148 0.135509 0.615252
rclavicle -4.47266e-016 -2.5842e-015
rhumerus -25.2928 -15.5298 -81.6689
rradius 22.841
rwrist 35.1735
rhand -21.384 -28.4572
rfingers 7.12502
rthumb 5.00356 -58.3781
lclavicle -4.47266e-016 -2.5842e-015
lhumerus -20.7311 2.17286 89.1215
lradius 14.4036
lwrist -0.895869
lhand -25.174 -6.48565
lfingers 7.12502
lthumb 1.3435 23.4899
rfemur -13.8187 -1.97241 19.4889
rtibia 20.2564
rfoot -11.6275 0.0680445
rtoes 17.8216
lfemur -9.80936 5.90319 -18.124
ltibia 15.3668
lfoot -8.79422 6.40797
ltoes 2.24757
646
root 0.369042 17.7824 2.91576 6.83101 -1.54391 -1.22769
lowerback -2.81496 -0.0224129 -0.237952
upperback 2.09959 -0.0674155 1.38832
thorax 3.74171 -0.0593204 1.5596
lowerneck -13.5159 0.156706 -2.03435
upperneck 24.7893 0.571432 0.561401
head 10.1147 0.136399 0.614688
rclavicle 6.80837e-015 5.76476e-015
rhumerus -25.3023 -15.5175 -81.6701
rradius 22.849
rwrist 35.1645
rhand -21.3851 -28.4592
rfingers 7.12502
rthumb 5.00253 -58.3801
lclavicle 6.80837e-015 5.76476e-015
lhumerus -20.7397 2.18479 89.1104
lradius 14.4058
lwrist -0.897502
lhand -25.1833 -6.47114
lfingers 7.12502
lthumb 1.33449 23.5044
rfemur -13.8143 -1.97058 19.4923
rtibia 20.2494
rfoot -11.6208 0.0701373
rtoes 17.8176
lfemur -9.80897 5.8995 -18.1205
ltibia 15.3706
lfoot -8.7911 6.41514
ltoes 2.24105
647
root 0.368981 17.7824 2.91512 6.82757 -1.55004 -1.23363
lowerback -2.81773 -0.0202839 -0.23195
upperback 2.09499 -0.0647742 1.38736
thorax 3.73843 -0.0578003 1.55539
lowerneck -13.5182 0.158827 -2.02771
upperneck 24.7796 0.576711 0.54664
head 10.1117 0.137813 0.608983
rclavicle -3.47873e-015 2.46493e-014
rhumerus -25.3116 -15.5032 -81.6719
rradius 22.856
rwrist 35.1539
rhand -21.389 -28.4531
rfingers 7.12502
rthumb 4.99879 -58.3741
lclavicle -3.47873e-015 2.46493e-014
lhumerus -20.7475 2.21391 89.0943
lradius 14.4063
lwrist -0.908598
lhand -25.1911 -6.45422
lfingers 7.12502
lthumb 1.32695 23.5214
rfemur -13.8094 -1.96215 19.4987
rtibia 20.241
rfoot -11.6129 0.0685205
rtoes 17.8161
lfemur -9.80918 5.89813 -18.1136
ltibia 15.3753
lfoot -8.78884 6.42216
ltoes 2.23582
648
root 0.36884 17.7824 2.91458 6.82339 -1.55577 -1.24058
lowerback -2.81242 -0.0206837 -0.229565
upperback 2.08588 -0.0653109 1.38804
thorax 3.726 -0.0579189 1.55467
lowerneck -13.5122 0.168558 -2.01688
upperneck 24.7671 0.591995 0.529805
head 10.1059 0.144002 0.603046
rclavicle 1.49089e-016 -2.98177e-015
rhumerus -25.3262 -15.4769 -81.6775
rradius 22.8657
rwrist 35.1386
rhand -21.3901 -28.4512
rfingers 7.12502
rthumb 4.99764 -58.3723
lclavicle 1.49089e-016 -2.98177e-015
lhumerus -20.765 2.26097 89.0711
lradius 14.4087
lwrist -0.930687
lhand -25.1942 -6.44433
lfingers 7.12502
lthumb 1.32401 23.5313
rfemur -13.8023 -1.95242 19.5062
rtibia 20.2313
rfoot -11.6055 0.0667614
rtoes 17.8302
lfemur -9.80911 5.89884 -18.1052
ltibia 15.3819
lfoot -8.78864 6.42698
ltoes 2.22967
649
root 0.368624 17.7824 2.91418 6.81864 -1.55999 -1.24727
lowerback -2.81355 -0.0195174 -0.226674
upperback 2.07879 -0.0638261 1.38845
thorax 3.71925 -0.0570491 1.55354
lowerneck -13.4998 0.177584 -2.00525
upperneck 24.7461 0.605972 0.51274
head 10.0959 0.149718 0.596665
rclavicle -8.94531e-016 3.57812e-015
rhumerus -25.336 -15.4698 -81.6777
rradius 22.8649
rwrist 35.1352
rhand -21.3976 -28.4441
rfingers 7.12502
rthumb 4.9904 -58.3653
lclavicle -8.94531e-016 3.57812e-015
lhumerus -20.7793 2.2964 89.0506
lradius 14.4077
lwrist -0.946907
lhand -25.2063 -6.45936
lfingers 7.12502
lthumb 1.31234 23.5163
rfemur -13.7938 -1.94377 19.5136
rtibia 20.2215
rfoot -11.599 0.065357
rtoes 17.8528
lfemur -9.80766 5.90232 -18.0967
ltibia 15.3877
lfoot -8.79026 6.42789
ltoes 2.22943
650
root 0.368241 17.7823 2.91378 6.8127 -1.56369 -1.25607
lowerback -2.81725 -0.0187845 -0.225064
upperback 2.07547 -0.0629651 1.39025
thorax 3.71788 -0.0565835 1.55453
lowerneck -13.4841 0.18543 -1.98968
upperneck 24.7144 0.618701 0.489856
head 10.0814 0.154638 0.587348
rclavicle 1.49089e-015 3.97569e-015
rhumerus -25.339 -15.4625 -81.6796
rradius 22.8605
rwrist 35.1305
rhand -21.405 -28.4365
rfingers 7.12502
rthumb 4.98331 -58.3579
lclavicle 1.49089e-015 3.97569e-015
lhumerus -20.7895 2.34106 89.0268
lradius 14.4057
lwrist -0.97518
lhand -25.2166 -6.49422
lfingers 7.12502
lthumb 1.30234 23.4816
rfemur -13.7842 -1.93072 19.5238
rtibia 20.2124
rfoot -11.5937 0.0585519
rtoes 17.8679
lfemur -9.80347 5.90624 -18.0847
ltibia 15.3912
lfoot -8.79143 6.42727
ltoes 2.23749
651
root 0.368089 17.7823 2.91348 6.80816 -1.56194 -1.25919
lowerback -2.82708 -0.0179729 -0.224594
upperback 2.07542 -0.0619509 1.39014
thorax 3.72337 -0.0560893 1.55424
lowerneck -13.4751 0.189654 -1.9914
upperneck 24.6823 0.627332 0.480091
head 10.068 0.157594 0.585093
rclavicle 3.47873e-016 3.57812e-015
rhumerus -25.333 -15.4686 -81.6766
rradius 22.8493
rwrist 35.1308
rhand -21.4157 -28.4231
rfingers 7.12502
rthumb 4.97293 -58.3447
lclavicle 3.47873e-016 3.57812e-015
lhumerus -20.795 2.37507 89.0081
lradius 14.4005
lwrist -0.998582
lhand -25.2408 -6.56229
lfingers 7.12502
lthumb 1.27898 23.4136
rfemur -13.7754 -1.93066 19.5276
rtibia 20.2044
rfoot -11.5906 0.0581829
rtoes 17.8811
lfemur -9.79979 5.90895 -18.0798
ltibia 15.3926
lfoot -8.79433 6.42166
ltoes 2.25419
652
root 0.36789 17.7822 2.9132 6.80411 -1.5609 -1.26052
lowerback -2.84381 -0.0155568 -0.225514
upperback 2.07966 -0.0587728 1.38879
thorax 3.73713 -0.0545927 1.55361
lowerneck -13.4684 0.188573 -1.992
upperneck 24.6436 0.629062 0.467158
head 10.0528 0.157166 0.580649
rclavicle -1.3418e-015 3.57812e-015
rhumerus -25.3272 -15.4631 -81.677
rradius 22.8504
rwrist 35.1141
rhand -21.4176 -28.4136
rfingers 7.12502
rthumb 4.97111 -58.3353
lclavicle -1.3418e-015 3.57812e-015
lhumerus -20.7934 2.41001 88.9895
lradius 14.3927
lwrist -1.02697
lhand -25.2656 -6.65374
lfingers 7.12502
lthumb 1.25507 23.3223
rfemur -13.7684 -1.92903 19.5294
rtibia 20.1982
rfoot -11.5888 0.0568796
rtoes 17.8915
lfemur -9.79549 5.91001 -18.0768
ltibia 15.3914
lfoot -8.79512 6.41818
ltoes 2.27218
653
root 0.367663 17.7822 2.91284 6.8024 -1.56033 -1.26288
lowerback -2.86366 -0.0127699 -0.226774
upperback 2.08457 -0.05514 1.38837
thorax 3.75335 -0.052906 1.55418
lowerneck -13.4637 0.18389 -1.99227
upperneck 24.6019 0.626384 0.451435
head 10.037 0.15444 0.574616
rclavicle 1.3418e-015 -2.38542e-015
rhumerus -25.3275 -15.4381 -81.6806
rradius 22.8682
rwrist 35.075
rhand -21.4153 -28.409
rfingers 7.12502
rthumb 4.97334 -58.3307
lclavicle 1.3418e-015 -2.38542e-015
lhumerus -20.7912 2.44638 88.9727
lradius 14.3859
lwrist -1.05446
lhand -25.2893 -6.73271
lfingers 7.12502
lthumb 1.23213 23.2435
rfemur -13.7655 -1.92646 19.5326
rtibia 20.1938
rfoot -11.5872 0.053091
rtoes 17.8913
lfemur -9.79231 5.91025 -18.0727
ltibia 15.3863
lfoot -8.79214 6.41526
ltoes 2.28702
654
root 0.367488 17.7823 2.91252 6.80174 -1.55946 -1.26198
lowerback -2.88495 -0.0096034 -0.231049
upperback 2.08965 -0.0508154 1.38637
thorax 3.77053 -0.0509371 1.55484
lowerneck -13.4643 0.179186 -1.98977
upperneck 24.5631 0.623044 0.43605
head 10.0233 0.151685 0.568187
rclavicle -1.44119e-015 -8.74653e-015
rhumerus -25.3338 -15.4115 -81.6846
rradius 22.8969
rwrist 35.0311
rhand -21.4121 -28.4055
rfingers 7.12502
rthumb 4.97647 -58.3271
lclavicle -1.44119e-015 -8.74653e-015
lhumerus -20.7866 2.48841 88.9545
lradius 14.376
lwrist -1.08846
lhand -25.318 -6.82532
lfingers 7.12502
lthumb 1.20442 23.151
rfemur -13.7647 -1.92591 19.532
rtibia 20.1914
rfoot -11.5865 0.0505953
rtoes 17.8923
lfemur -9.78918 5.90905 -18.0728
ltibia 15.3788
lfoot -8.78784 6.41283
ltoes 2.30085
